<svg id="Layer_1" data-name="Layer 1" xmlns="http://www.w3.org/2000/svg" viewBox="0 0 469 240"><defs><style>.cls-1,.cls-5{fill:#00a1b6;}.cls-1,.cls-2,.cls-3{fill-rule:evenodd;}.cls-2{fill:#9f9fa0;}.cls-3,.cls-4{fill:#595757;}</style></defs><title>pyq_logo_color</title><path class="cls-1" d="M138.12,201.55c-7.54-.13-12.73,5.78-11.59,13.19a16.73,16.73,0,0,0,15.74,13.66c7.54.12,12.73-5.78,11.59-13.2a16.72,16.72,0,0,0-15.74-13.65"/><path class="cls-2" d="M187.74,86.67c2.13-7.12-1.31-12.34-5.57-16C161.77,53.19,93.08,42.81,63.79,46.24a28.75,28.75,0,0,0-6-9.55l.54-.09c3.92-.43,7.71-.71,11.41-.86s7.32-.15,10.9-.05c3.77.11,7.5.34,11.24.67s7.5.76,11.34,1.27a260.61,260.61,0,0,1,38.81,8.07c11.79,3.47,22.2,7.63,30.25,12.24a60.92,60.92,0,0,1,8.76,5.94c7,5.79,11.61,13.81,6.68,22.79"/><path class="cls-3" d="M26.05,59.73c-.66,2.05,1.39,4.06,3.58,6.2,2.58,2.53,6.85,5.1,3.67,8.9a7.41,7.41,0,0,0-.3-2.2c-3.2.15-3.15-3.23-5.46-6.95-1.1-1.75-2.75-4.08-1.49-6m25.12-6.08c1.81,1.14,1.54,4,1.24,7.05-.35,3.59-2,8.3,2.91,9.18A7.55,7.55,0,0,1,54.13,68c2.55-1.94.33-4.49-.28-8.83C53.56,57.11,53.33,54.27,51.17,53.65Zm68.53,71.61c-5.12,0-3.36,7.47-1,13.59C123,150,130,164.6,133.18,174.79c4.07,13.1-15,18.63-22.49,1.15-5.88-13.79-11.49-27.38-16.46-40.23-4.89-12.63-4.15-28.17,14.27-30.21,16.79-1.86,85.76,2.82,81.62-29.12a15.61,15.61,0,0,0-2.76-6.76,31.22,31.22,0,0,0-5.83-6.21,61.82,61.82,0,0,0-8.9-6c-8.08-4.62-18.53-8.8-30.35-12.28a260.09,260.09,0,0,0-39-8.11c-15.21-2-29.91-2.73-45.16-1l-.94.13c3.19,4.3,9.53,17.93,4.53,24.72-8.23,11.18-3.6,23-9,27.27l1.66,5.81,1.65,1.55-2.51-.74L52.75,97l-.31-2.19-3.6-5.16c-8.44.76-13.63-11.88-34.5-22.08-4.25-2.08-4.87-6.23-4.57-10.55C11.2,36.57,15,11.92,58.51,9.83c22.94-1.1,50.65,2.55,76.12,9.26,23.81,6.28,51.7,15.85,68.61,34.6,18.83,20.88,11.78,40.87-4.59,54.15C178.55,124.15,146,125.26,119.7,125.26Z"/><path class="cls-4" d="M206.65,111.26l30.52,80.19v.61L235,198.7h0c-4.09,12.85-8.88,12.75-19.68,12.54-1.37,0-2.84-.06-4.69-.06h-4.54V228.1h17c10.68,0,17.29-2.58,22.09-7.39s8-12.1,11.59-21.27h0l32.58-88.18H268.32l-19.47,54.85-20.1-54.85Z"/><path class="cls-5" d="M434.24,163.3l21.34,15.91,1.52,1.14,1,.75-.81,1-1.22,1.47-8,9.7-1.09,1.3-.72.87-.91-.67-1.37-1-24.6-18.15a69.37,69.37,0,0,1-8.74,4.67A75,75,0,0,1,400.22,184a83.79,83.79,0,0,1-11.88,2.4,98.92,98.92,0,0,1-12.72.8A87.82,87.82,0,0,1,342.27,181,73.1,73.1,0,0,1,316,162.92a83.15,83.15,0,0,1-17.19-28.77,106.6,106.6,0,0,1-6-35.88,106.6,106.6,0,0,1,6-35.88A83.15,83.15,0,0,1,316,33.62a73.12,73.12,0,0,1,26.29-18.13,93.44,93.44,0,0,1,66.6,0,73.43,73.43,0,0,1,26.22,18.14,83.46,83.46,0,0,1,17.14,28.77,106.81,106.81,0,0,1,6,35.86A111,111,0,0,1,456.48,118a97.93,97.93,0,0,1-5.14,18.31,86,86,0,0,1-7.74,15.21,77.29,77.29,0,0,1-9.36,11.8m-51.92-18.93,8.29-9.93,1.09-1.31.72-.87.91.68,1.37,1,22.58,16.72a57.11,57.11,0,0,0,7.32-9.23,66.62,66.62,0,0,0,6-12.09,80.57,80.57,0,0,0,4.05-14.87,94.21,94.21,0,0,0,1.38-16.22,91.1,91.1,0,0,0-4.43-28.6,65.28,65.28,0,0,0-12.55-22.5,51.8,51.8,0,0,0-18.94-13.74,62.29,62.29,0,0,0-24.54-4.65A63,63,0,0,0,351,33.42a52.07,52.07,0,0,0-19,13.73,65,65,0,0,0-12.59,22.5,91,91,0,0,0-4.45,28.62,91,91,0,0,0,4.45,28.62A65,65,0,0,0,332,149.39a51.93,51.93,0,0,0,19,13.72,62.81,62.81,0,0,0,24.65,4.65,71.59,71.59,0,0,0,8.45-.48,57.11,57.11,0,0,0,7.76-1.44,49.86,49.86,0,0,0,5.81-1.87c1.28-.5,2.51-1,3.7-1.63l-18.49-13.62-1.55-1.14-1-.76.82-1Z"/></svg>